<svg id="Layer_1" data-name="Layer 1" xmlns="http://www.w3.org/2000/svg" viewBox="0 0 376.45 378.4"><defs><style>.cls-1{fill:#f7de05;}.cls-2{fill:none;stroke:#fcee21;stroke-miterlimit:10;stroke-width:3px;}</style></defs><title>bro_call</title><path class="cls-1" d="M307,219a9,9,0,0,1-2.8,1.3l-232.6,75a3.1,3.1,0,0,1-1.9-5.9h0l232.6-75c1-.3,1.2-.6,1.2-.6.3-.7,0-3.9-14-15.6-1.1-.9-2-1.7-2.5-2.1-18-16.9-35.3-37.4-52.9-62.4-14.7-21-29.8-43.7-39.2-69.9-3.2-9-5.1-10.3-5.6-10.5a12,12,0,0,0-1.1,1.2h0c-.4.6-.9,1.4-1.6,2.3L45.4,256.1a3.09,3.09,0,0,1-5.1-3.5l.1-.1L183.2,50.9c2.5-3.6,5.2-4.1,7-3.8,5,.7,8,7.4,10.6,14.5,9.2,25.6,24,47.9,38.4,68.5,17.3,24.7,34.3,44.8,52.1,61.5.4.4,1.2,1.1,2.2,1.9,8.9,7.4,17.4,15.1,16.2,21.6A6.66,6.66,0,0,1,307,219Z" transform="translate(0 0.02)"/><path class="cls-1" d="M263.6,153.8a2.36,2.36,0,1,1-2.8-3.8l.1-.1a12.48,12.48,0,0,0,2.9-17.4l-14.4-20.3a12.36,12.36,0,0,0-17.3-2.9,2.49,2.49,0,0,1-3.3-.5,2.39,2.39,0,0,1,.5-3.3h0a17.14,17.14,0,0,1,23.9,4l14.4,20.3a17.24,17.24,0,0,1-4,24Z" transform="translate(0 0.02)"/><path class="cls-1" d="M63.7,313.4,49.2,323.7a11.43,11.43,0,0,1-15.8-2.6l-28-39.3A11.44,11.44,0,0,1,8,266l14.5-10.3a11.36,11.36,0,0,1,15.8,2.7l28,39.3A11.31,11.31,0,0,1,63.7,313.4ZM10.8,269.8a6.7,6.7,0,0,0-1.6,9.3l28,39.3a6.7,6.7,0,0,0,9.3,1.6L61,309.7a6.7,6.7,0,0,0,1.6-9.3l-28-39.3a6.7,6.7,0,0,0-9.3-1.6h0Z" transform="translate(0 0.02)"/><path class="cls-1" d="M27.6,319.1a9.6,9.6,0,0,1-13.4-2.2L1.8,299.5A9.6,9.6,0,0,1,4,286.1a1.49,1.49,0,0,1,2.2.2,1.49,1.49,0,0,1-.2,2.2c-.1.1-.1.1-.2.1a6.43,6.43,0,0,0-1.5,9L16.7,315a6.43,6.43,0,0,0,9,1.5,1.56,1.56,0,1,1,2,2.4l-.1.2Z" transform="translate(0 0.02)"/><path class="cls-1" d="M169.4,375.1a19.26,19.26,0,0,1-4.9,2.6c-4.7,1.6-7.4,0-8.5-1.2L79.6,302.8a3.05,3.05,0,0,1,.1-4.4,3.21,3.21,0,0,1,4.3-.1L160.4,372c.7.4,4.3-.5,8-4.1s4.5-7.3,4.1-8L105,292.2a3.11,3.11,0,0,1,4.4-4.4h0l67.5,67.8c3.6,3.6,1.8,10.8-4.1,16.7C171.7,373.3,170.6,374.2,169.4,375.1Z" transform="translate(0 0.02)"/><line class="cls-2" x1="232" y1="85.42" x2="257" y2="0.42"/><line class="cls-2" x1="268.9" y1="112.82" x2="309" y2="78.42"/><line class="cls-2" x1="376.2" y1="133.62" x2="288.8" y2="148.22"/></svg>