<svg id="Layer_1" data-name="Layer 1" xmlns="http://www.w3.org/2000/svg" xmlns:xlink="http://www.w3.org/1999/xlink" viewBox="0 0 373.92 204.28"><defs><style>.cls-1,.cls-5{fill:none;}.cls-2{fill:url(#linear-gradient);}.cls-3{fill:url(#linear-gradient-2);}.cls-4{fill:url(#linear-gradient-3);}.cls-5{stroke:#2fba23;stroke-miterlimit:10;stroke-width:4px;}.cls-6{fill:url(#linear-gradient-4);}.cls-7{fill:url(#linear-gradient-5);}.cls-8{fill:url(#linear-gradient-6);}.cls-9{font-size:60px;font-family:Calibri;fill:url(#New_Pattern_Swatch_1);}.cls-10{letter-spacing:-0.02em;}.cls-11{letter-spacing:-0.02em;}</style><linearGradient id="linear-gradient" x1="7899.5" y1="-8087" x2="7920.5" y2="-8087" gradientTransform="matrix(1, 0, 0, -1, -7899.5, -8076.5)" gradientUnits="userSpaceOnUse"><stop offset="0" stop-color="#59c84f"/><stop offset="1" stop-color="#2fba23"/></linearGradient><linearGradient id="linear-gradient-2" x1="12.84" y1="149.93" x2="40.71" y2="149.93" gradientTransform="matrix(1, 0, 0, 1, 0, 0)" xlink:href="#linear-gradient"/><linearGradient id="linear-gradient-3" x1="387.16" y1="151.57" x2="359.29" y2="151.57" gradientTransform="matrix(1, 0, 0, 1, 0, 0)" xlink:href="#linear-gradient"/><linearGradient id="linear-gradient-4" x1="94.96" y1="82" x2="104.25" y2="82" gradientTransform="matrix(1, 0, 0, 1, 0, 0)" xlink:href="#linear-gradient"/><linearGradient id="linear-gradient-5" x1="138.25" y1="82" x2="146.96" y2="82" gradientTransform="matrix(1, 0, 0, 1, 0, 0)" xlink:href="#linear-gradient"/><linearGradient id="linear-gradient-6" x1="103.84" y1="179.09" x2="161.07" y2="179.09" gradientTransform="matrix(1, 0, 0, 1, 0, 0)" xlink:href="#linear-gradient"/><pattern id="New_Pattern_Swatch_1" data-name="New Pattern Swatch 1" width="21" height="21" patternUnits="userSpaceOnUse" viewBox="0 0 21 21"><rect class="cls-1" width="21" height="21"/><rect class="cls-2" width="21" height="21"/></pattern></defs><title>bro_pay_h</title><path class="cls-3" d="M40.46,50.54a24.11,24.11,0,0,0-11.83,4,19,19,0,0,0-4.21,4.19,27.09,27.09,0,0,0-1.66,2.5c-.43.93-1,1.78-1.35,2.74a38.16,38.16,0,0,0-2.69,12.28c-.38,4.36-.5,8.81-.6,13.28-.2,8.93-.15,17.91-.23,26.87l-.16,26.89c-.18,17.94-.35,35.9-.63,53.84-.11,9-.33,18-.49,26.92l-.27,13.46L16,251H15l-.34-13.46-.27-13.46c-.16-9-.38-17.94-.49-26.91-.28-17.94-.45-35.86-.63-53.82l-.16-26.94c-.06-9-.13-17.94,0-26.95.08-4.51.18-9,.56-13.61a64.93,64.93,0,0,1,.92-6.95A32.79,32.79,0,0,1,16.76,62a33.7,33.7,0,0,1,1.71-3.26,23.71,23.71,0,0,1,2.2-3,19.12,19.12,0,0,1,19.87-6.18Z" transform="translate(-13.04 -48.86)"/><path class="cls-4" d="M359.54,251.46a23.76,23.76,0,0,0,11.86-4.07,18.82,18.82,0,0,0,4.22-4.23l.45-.6.4-.64c.26-.43.55-.84.8-1.29.44-.92,1-1.8,1.35-2.75a38.69,38.69,0,0,0,2.66-12.36c.38-4.38.5-8.86.6-13.34.21-9,.15-18,.23-27l.16-27c.18-18,.35-36.06.63-54.09.11-9,.33-18,.49-27l.27-13.52L384,50h1l.34,13.52L385.61,77c.16,9,.38,18,.49,27,.28,18,.45,36,.63,54.07l.16,27.06c.06,9,.13,18,0,27.07-.08,4.53-.18,9.07-.55,13.67a68.08,68.08,0,0,1-.91,7,32.69,32.69,0,0,1-2.12,7,31.68,31.68,0,0,1-1.7,3.27c-.31.53-.69,1-1,1.55-.18.25-.34.51-.54.76l-.61.71a19.74,19.74,0,0,1-5.8,4.75,19.45,19.45,0,0,1-14.12,1.53Z" transform="translate(-13.04 -48.86)"/><circle class="cls-5" cx="118.96" cy="100.14" r="57"/><ellipse class="cls-6" cx="99.6" cy="82" rx="4.65" ry="6"/><ellipse class="cls-7" cx="142.6" cy="82" rx="4.35" ry="6"/><path class="cls-8" d="M105,168.26a.67.67,0,0,0-.24,0,1.26,1.26,0,0,0-.65,1c-1.92,8.22,6.24,14.19,12.49,17.59A32.4,32.4,0,0,0,132,191c9.9,0,19.93-6.36,25.82-14.07,1.69-2.22,4.2-5.52,2.88-8.47a2.13,2.13,0,0,0-1.2-1.21,3,3,0,0,0-2,.29A71.92,71.92,0,0,1,132,172c-9,0-17.78-2-26.54-3.69A2.28,2.28,0,0,0,105,168.26Z" transform="translate(-13.04 -48.86)"/><text class="cls-9" transform="translate(217.82 115.14)"><tspan class="cls-10">P</tspan><tspan class="cls-11" x="29.71" y="0">a</tspan><tspan x="57.33" y="0">y</tspan></text></svg>