<svg xmlns="http://www.w3.org/2000/svg" viewBox="0 0 387.7 387.7"><defs><style>.cls-1{isolation:isolate;}.cls-2{fill:#d48e00;}.cls-3,.cls-7{fill:#f6c500;}.cls-4{opacity:0.23;mix-blend-mode:multiply;}.cls-5,.cls-6{fill:none;stroke-miterlimit:10;stroke-width:4px;}.cls-5{stroke:#000;}.cls-6{stroke:#f6c500;}.cls-7{font-size:34.35px;font-family:Calibri-Bold, Calibri;font-weight:700;}</style></defs><title>bro_coin</title><g class="cls-1"><g id="Layer_1" data-name="Layer 1"><circle class="cls-2" cx="192.35" cy="192.35" r="184.85"/><path class="cls-3" d="M200.35,23a177.34,177.34,0,0,1,125.4,302.75A177.35,177.35,0,0,1,74.94,74.94,176.23,176.23,0,0,1,200.35,23m0-15C94.12,8,8,94.12,8,200.35S94.12,392.7,200.35,392.7,392.7,306.58,392.7,200.35,306.58,8,200.35,8Z" transform="translate(-8 -8)"/><g class="cls-4"><ellipse cx="153.32" cy="163.67" rx="9.15" ry="11.77"/><ellipse cx="237.94" cy="163.67" rx="8.57" ry="11.77"/><ellipse class="cls-5" cx="195.35" cy="195.35" rx="112.2" ry="111.82"/><path d="M165.94,260.26c-.92,12.41,17.72,25.12,33.47,27.48,38.21,5.71,71.19-47.87,63-60.82Z" transform="translate(-8 -8)"/></g><ellipse class="cls-3" cx="150.32" cy="160.67" rx="9.15" ry="11.77"/><ellipse class="cls-3" cx="234.94" cy="160.67" rx="8.57" ry="11.77"/><ellipse class="cls-6" cx="192.35" cy="192.35" rx="112.2" ry="111.82"/><path class="cls-3" d="M162.94,257.26c-.92,12.41,17.72,25.12,33.47,27.48,38.21,5.71,71.19-47.87,63-60.82Z" transform="translate(-8 -8)"/><g class="cls-4"><path d="M203.35,26a177.34,177.34,0,0,1,125.4,302.75A177.35,177.35,0,0,1,77.94,77.94,176.23,176.23,0,0,1,203.35,26m0-15C97.12,11,11,97.12,11,203.35S97.12,395.7,203.35,395.7,395.7,309.58,395.7,203.35,309.58,11,203.35,11Z" transform="translate(-8 -8)"/></g><path class="cls-3" d="M200.35,23a177.34,177.34,0,0,1,125.4,302.75A177.35,177.35,0,0,1,74.94,74.94,176.23,176.23,0,0,1,200.35,23m0-15C94.12,8,8,94.12,8,200.35S94.12,392.7,200.35,392.7,392.7,306.58,392.7,200.35,306.58,8,200.35,8Z" transform="translate(-8 -8)"/><text class="cls-7" transform="matrix(0.78, 0.63, -0.63, 0.78, 80.53, 303.93)"> </text><text class="cls-7" transform="translate(90.94 312.16) rotate(35.04)"> </text><text class="cls-7" transform="matrix(0.88, 0.48, -0.48, 0.88, 102.22, 320.06)">B</text><text class="cls-7" transform="translate(125.04 332.11) rotate(20.43)">R</text><text class="cls-7" transform="translate(149.43 340.81) rotate(10.87)">O</text><text class="cls-7" transform="translate(178.72 345.45) rotate(2.95)"> </text><text class="cls-7" transform="translate(192.73 346.11) rotate(-4.2)">C</text><text class="cls-7" transform="translate(216.9 344.03) rotate(-11.67)">O</text><text class="cls-7" transform="translate(245.48 337.36) rotate(-18.45)">I</text><text class="cls-7" transform="translate(260.3 332.47) rotate(-26.23)">N</text></g></g></svg>