<svg id="Layer_1" data-name="Layer 1" xmlns="http://www.w3.org/2000/svg" viewBox="0 0 389.04 381.41"><defs><style>.cls-1{opacity:0.2;}.cls-2{fill:#3fa9f5;}.cls-3{opacity:0.3;}.cls-4{opacity:0.5;}.cls-5{opacity:0.7;}</style></defs><title>bro_circle</title><g class="cls-1"><path class="cls-2" d="M181.34,10.71v1a119.8,119.8,0,0,1,24.79,2.68c32.09,6.79,66.41,20.63,96.64,39,33.13,20.09,58.72,43.87,74,68.78,15.47,25.24,19.92,50.7,13.22,75.66-13.94,52-33.31,95.9-56,127.07-28.8,39.51-63.11,59.55-102,59.55a125.34,125.34,0,0,1-25.45-2.72,327,327,0,0,1-98-37.71c-31.65-18.63-56.36-41.18-71.43-65.22-16.39-26.13-21.25-53.2-14.43-80.47C31.54,162.82,48.5,112,79,71.09c13.85-18.59,29.09-33,45.32-43a108.07,108.07,0,0,1,57.05-16.42v-1m0,0c-84.89,0-137,97-159.62,187.32C-.7,287.68,106.51,361.86,206.34,382.66A125.83,125.83,0,0,0,232,385.4C318.24,385.4,366.83,288,391,198c23.48-87.51-93.91-165.41-184.62-184.62a120.45,120.45,0,0,0-25-2.7Z" transform="translate(-4.96 -8.59)"/></g><g class="cls-3"><path class="cls-2" d="M204.83,8.59v1c23.72,0,45.93,7.55,66,22.43,26.35,19.53,51.8,46.39,71.67,75.63,21.77,32,35.14,64.33,38.67,93.33,3.57,29.39-3,54.39-19.45,74.3-27.32,33-55,59.48-82.36,78.66C246.22,377.2,214.48,389,185,389c-23.64,0-46.07-7.68-66.64-22.83A326.73,326.73,0,0,1,45,291.11c-21-30.12-34.11-60.9-37.82-89C3.11,171.5,10,144.86,27.5,122.9c25.65-32.09,54.09-59.32,82.28-78.73,33.3-22.94,65.28-34.58,95-34.58v-1m0,0c-64.56,0-131,54.78-178.1,113.68C-31,194.46,35.67,306.53,117.78,367c21.91,16.13,44.56,23,67.24,23,64.58,0,129.36-55.95,177.47-114.08,57.76-69.81-16.57-189.5-91.06-244.71C250.08,15.39,227.57,8.59,204.82,8.59Z" transform="translate(-4.96 -8.59)"/></g><g class="cls-4"><path class="cls-2" d="M158.25,16v1c1.59,0,3.16,0,4.79.09,32.77,1.22,69,9,101.87,21.89,36.08,14.13,65.35,33.2,84.65,55.14,19.56,22.22,28.29,46.54,25.95,72.28C368.3,245.83,339.91,379,230.77,379c-1.52,0-3.08,0-4.62-.08a326.82,326.82,0,0,1-103-20.42c-34.37-12.95-62.56-31-81.52-52.07-20.61-22.95-30-48.8-27.95-76.83C17.81,173.38,31.5,122.29,52.2,85.77,64.36,64.33,79,47.64,95.6,36.15,114,23.47,135.05,17,158.23,17l0-1m0,0C59.89,16,20,129.5,12.68,229.56,5.9,321.71,124.21,376.5,226.11,380c1.57.06,3.12.08,4.66.08,101,0,136.65-113.49,145.74-213.51,8.19-90.23-120.78-147-213.44-150.4-1.63-.06-3.24-.09-4.84-.09Z" transform="translate(-4.96 -8.59)"/></g><g class="cls-5"><path class="cls-2" d="M178,9.58v2a114.69,114.69,0,0,1,35.39,5.82C244.45,27.49,277,44.79,305.08,66.12c30.72,23.36,53.57,49.57,66.07,75.81,12.62,26.46,14.36,52,5.19,75.83-18.25,47.43-40.68,87.42-64.87,115.63-30.34,35.4-63.77,53.35-99.36,53.35a118.88,118.88,0,0,1-36.28-5.94,330.58,330.58,0,0,1-93.21-47.64c-29.4-21.75-51.49-46.65-63.89-72-13.43-27.45-15.4-54.62-5.86-80.76C24.71,148,45.61,101.59,77.94,64.66c30.84-35.22,64.49-53.07,100-53.08v-2m0,0C99.37,9.59,41.48,96.23,11,179.72c-31.69,86.8,67.14,171.83,164.23,203a120.31,120.31,0,0,0,36.89,6c79.45,0,134.2-87.36,166.09-170.26,32.54-84.57-76-174.36-164.22-203a116.43,116.43,0,0,0-36-5.91Z" transform="translate(-4.96 -8.59)"/></g><path class="cls-2" d="M185.78,24.34v2c42.23,0,82.12,8,112.32,22.4,16.75,8,30.43,17.91,40.67,29.44a86.68,86.68,0,0,1,21,42.86c14.23,79.73,21.82,217.35-87.2,243.27a332.87,332.87,0,0,1-75.69,8.78c-41.93,0-79.46-7.91-108.53-22.88C72.65,342.13,59.73,332.1,50,320.38a95.32,95.32,0,0,1-20.55-43.23c-11-56.27-11.13-109.79-.26-150.68,6.37-24,16.47-43.85,30-59.06C74.1,50.62,93.43,39.35,116.62,33.92a308.25,308.25,0,0,1,69.15-7.58v-2m0,0A309.86,309.86,0,0,0,116.16,32C16.88,55.22,7.82,177.48,27.45,277.54c13.43,68.46,90,97.55,169.42,97.55A332.57,332.57,0,0,0,273,366.25c101.81-24.2,106.62-145.19,88.71-245.57-12.18-68.22-96.55-96.34-176-96.34Z" transform="translate(-4.96 -8.59)"/></svg>