<svg xmlns="http://www.w3.org/2000/svg" xmlns:xlink="http://www.w3.org/1999/xlink" id="Layer_1" data-name="Layer 1" viewBox="-0.02 -0.01 366.05 199.33"><defs><style>.cls-1,.cls-7{fill:none;}.cls-2{fill:url(#linear-gradient);}.cls-3{fill:url(#linear-gradient-2);}.cls-4{fill:url(#linear-gradient-3);}.cls-5{fill:url(#linear-gradient-4);}.cls-6{fill:url(#linear-gradient-5);}.cls-7{stroke:#2fba23;stroke-miterlimit:10;stroke-width:4px;}.cls-8{fill:url(#linear-gradient-6);}.cls-10,.cls-11,.cls-9{isolation:isolate;}.cls-10,.cls-11{font-size:58.53px;font-family:Calibri;fill:url(#New_Pattern_Swatch_1);}.cls-10{letter-spacing:-0.02em;}</style><linearGradient id="linear-gradient" x1="7899.5" y1="-8366" x2="7920.5" y2="-8366" gradientTransform="translate(-7899.5 8376.5)" gradientUnits="userSpaceOnUse"><stop offset="0" stop-color="#59c84f"/><stop offset="1" stop-color="#2fba23"/></linearGradient><linearGradient id="linear-gradient-2" x1="30.84" y1="54.54" x2="58.12" y2="54.54" gradientTransform="matrix(1, 0, 0, -1, -13.04, 153.14)" xlink:href="#linear-gradient"/><linearGradient id="linear-gradient-3" x1="397.23" y1="52.95" x2="369.95" y2="52.95" gradientTransform="matrix(1, 0, 0, -1, -13.04, 153.14)" xlink:href="#linear-gradient"/><linearGradient id="linear-gradient-4" x1="108.99" y1="120.05" x2="118.08" y2="120.05" gradientTransform="matrix(1, 0, 0, -1, -18, 202)" xlink:href="#linear-gradient"/><linearGradient id="linear-gradient-5" x1="151.36" y1="120.05" x2="159.89" y2="120.05" gradientTransform="matrix(1, 0, 0, -1, -18, 202)" xlink:href="#linear-gradient"/><linearGradient id="linear-gradient-6" x1="128.87" y1="28.51" x2="177.47" y2="28.51" gradientTransform="matrix(1, 0, 0, -1, -13.04, 153.14)" xlink:href="#linear-gradient"/><pattern id="New_Pattern_Swatch_1" data-name="New Pattern Swatch 1" width="21" height="21" patternTransform="matrix(1, 0, 0, -1, 229.82, 189.86)" patternUnits="userSpaceOnUse" viewBox="0 0 21 21"><rect class="cls-1" width="21" height="21"/><rect class="cls-1" width="21" height="21"/><rect class="cls-2" width="21" height="21"/></pattern></defs><title>bro_pay_s</title><path class="cls-3" d="M44.84,1.65a23.72,23.72,0,0,0-11.58,3.9,18.59,18.59,0,0,0-4.12,4.09,26.55,26.55,0,0,0-1.63,2.44c-.42.91-1,1.74-1.32,2.67a37.36,37.36,0,0,0-2.63,12c-.37,4.25-.49,8.59-.59,13-.19,8.72-.14,17.48-.22,26.22l-.16,26.23c-.18,17.5-.34,35-.62,52.51-.1,8.78-.32,17.56-.48,26.26L21.23,184l-.33,13.16h-1l-.33-13.13-.27-13.13c-.16-8.78-.37-17.5-.48-26.25-.27-17.5-.44-35-.61-52.5l-.16-26.27c-.06-8.78-.13-17.5,0-26.29.08-4.4.17-8.78.55-13.28a59.63,59.63,0,0,1,.9-6.78,31.89,31.89,0,0,1,2.12-6.73,34.35,34.35,0,0,1,1.67-3.18,22.8,22.8,0,0,1,2.16-2.93A18.76,18.76,0,0,1,44.92.7Z" transform="translate(-18 0)"/><path class="cls-4" d="M357.16,197.64a23.28,23.28,0,0,0,11.61-4,18.6,18.6,0,0,0,4.13-4.13l.44-.58.39-.63c.25-.41.54-.81.78-1.25.43-.9,1-1.76,1.32-2.69a37.54,37.54,0,0,0,2.61-12c.37-4.28.49-8.65.58-13,.21-8.77.15-17.55.23-26.33l.16-26.34c.17-17.56.34-35.17.61-52.76.11-8.78.33-17.56.48-26.34l.27-13.19.33-13.24h1l.33,13.19.27,13.15c.15,8.78.37,17.56.47,26.34.28,17.56.45,35.12.62,52.74l.16,26.4c.06,8.78.13,17.56,0,26.4-.08,4.42-.18,8.85-.54,13.34a68.22,68.22,0,0,1-.89,6.83,31.67,31.67,0,0,1-2.08,6.83,31.17,31.17,0,0,1-1.66,3.19c-.3.51-.68,1-1,1.51-.18.24-.33.49-.53.74l-.59.69a18.77,18.77,0,0,1-19.5,6.13Z" transform="translate(-18 0)"/><ellipse class="cls-5" cx="95.54" cy="81.95" rx="4.55" ry="5.85"/><ellipse class="cls-6" cx="137.62" cy="81.95" rx="4.26" ry="5.85"/><ellipse class="cls-7" cx="116.44" cy="97.7" rx="55.79" ry="55.6"/><path class="cls-8" d="M115.84,126c-.46,6.17,8.81,12.49,16.64,13.66,19,2.84,35.4-23.8,31.32-30.24Z" transform="translate(-18 0)"/><g class="cls-9"><text class="cls-10" transform="translate(213.21 112.33)">P</text><text class="cls-10" transform="translate(242.29 112.33)">a</text><text class="cls-11" transform="translate(269.32 112.33)">y</text></g></svg>